<svg xmlns="http://www.w3.org/2000/svg" viewBox="0 0 533.1 163" width="533.1" height="163"><g transform="translate(11,11)"><g fill="none" stroke="#1A1A18" stroke-linecap="square" stroke-linejoin="miter" stroke-miterlimit="10"><g transform="translate(0,0)"><path d="M 80.04 24.76 A 44 44 0 1 0 88 50 H 42" stroke-width="18"/></g><g transform="translate(107,0)"><path d="M 0 0 V 100 H 58" stroke-width="18"/></g><g transform="translate(172,0)"><path d="M 0 50 A 44 44 0 1 1 88 50 A 44 44 0 1 1 0 50 Z" stroke-width="18"/><path d="M 44 15 V 85" stroke-width="11.16"/><path d="M 9 50 H 79" stroke-width="11.16"/></g><g transform="translate(275,0)"><path d="M 0 0 V 100" stroke-width="18"/><path d="M 0 0 H 28 A 25 25 0 0 1 28 50 H 0" stroke-width="18"/><path d="M 0 50 H 28 A 25 25 0 0 1 28 100 H 0" stroke-width="18"/></g><g transform="translate(357,0)"><path d="M 0 100 L 38 0 L 76 100" stroke-width="18"/><path d="M 12.16 68 H 63.84" stroke-width="18"/><path d="M 7.8 40 H 68.2" stroke-width="11.16"/></g><g transform="translate(448,0)"><path d="M 0 0 V 100 H 58" stroke-width="18"/></g></g><text x="0" y="126" font-family="Liberation Sans, Arial, Helvetica, sans-serif" font-size="15" letter-spacing="5.1" fill="#1A1A18">YAPI GELİŞTİRME A.Ş.</text></g></svg>